<svg xmlns="http://www.w3.org/2000/svg" width="64" height="64" viewBox="0 0 64 64">
  <g id="logo_short" transform="translate(-290 -854)">
    <rect id="Rectangle_2" data-name="Rectangle 2" width="64" height="64" transform="translate(290 854)" fill="#fff"/>
    <path id="Path_3" data-name="Path 3" d="M.286-10.831A.253.253,0,0,1,0-11.117V-40.545a.253.253,0,0,1,.286-.286H15a14.712,14.712,0,0,1,5.84,1.174,15.037,15.037,0,0,1,4.781,3.206,15.037,15.037,0,0,1,3.206,4.781A14.712,14.712,0,0,1,30-25.831a14.712,14.712,0,0,1-1.174,5.84,15.037,15.037,0,0,1-3.206,4.781A15.037,15.037,0,0,1,20.84-12,14.712,14.712,0,0,1,15-10.831Z" transform="translate(292.444 911.831)" fill="#8dccc4"/>
    <path id="Path_4" data-name="Path 4" d="M6.766-11.437a.743.743,0,0,0,.739-.522V-12a.978.978,0,0,0-.043-.609c-.087-.174-.217-.3-.7-.435a.733.733,0,0,0-.739.565.74.74,0,0,0,.087.609A1.033,1.033,0,0,0,6.766-11.437Zm.783-2.391a.745.745,0,0,0,.7-.478l6.087-17.827a.865.865,0,0,0-.043-.565c-.087-.174-.217-.3-.652-.391a.791.791,0,0,0-.7.478L6.9-14.785C6.766-14.307,6.983-14,7.548-13.828Zm15.306-.087a.6.6,0,0,0,.435-.348.727.727,0,0,0,.043-.522l-1.217-3.783a.745.745,0,0,0-.7-.478H12.244a.6.6,0,0,0-.7.7.725.725,0,0,0,.7.739H20.9l1.087,3.261a.62.62,0,0,0,.652.478Zm4.653,2.348c.435-.13.565-.435.435-.913l-3.652-10a.674.674,0,0,0-.652-.391H13.462c-.478,0-.739.217-.739.7a.762.762,0,0,0,.739.739h9.653l3.479,9.479a.706.706,0,0,0,.7.435Zm-24.828.043a.706.706,0,0,0,.7-.435L13.679-39.7,18.506-25c.174.435.478.478.913.478a.6.6,0,0,0,.435-.348.827.827,0,0,0,.043-.565L14.723-41.222a.745.745,0,0,0-.7-.478h-.609a.745.745,0,0,0-.7.478L2.026-12.48C1.9-12,2.113-11.7,2.678-11.524ZM22.723-24.568a.6.6,0,0,0,.435-.348.827.827,0,0,0,.043-.565L18.81-38.83c-.217-.435-.478-.435-.913-.435-.435.13-.565.435-.435.913L21.81-25a.745.745,0,0,0,.7.478Z" transform="translate(321.759 912.7)" fill="#5a584c"/>
  </g>
</svg>
