<svg xmlns="http://www.w3.org/2000/svg" width="257.719" height="42.875" viewBox="0 0 257.719 42.875">
  <g id="logo" transform="translate(-167 -1011.06)">
    <path id="Path_2" data-name="Path 2" d="M8.58.06A1.025,1.025,0,0,0,9.6-.66V-.72a1.35,1.35,0,0,0-.06-.84c-.12-.24-.3-.42-.96-.6a1.012,1.012,0,0,0-1.02.78,1.021,1.021,0,0,0,.12.84A1.426,1.426,0,0,0,8.58.06Zm1.08-3.3a1.028,1.028,0,0,0,.96-.66l8.4-24.6a1.194,1.194,0,0,0-.06-.78c-.12-.24-.3-.42-.9-.54a1.091,1.091,0,0,0-.96.66L8.76-4.56C8.58-3.9,8.88-3.48,9.66-3.24Zm21.12-.12a.825.825,0,0,0,.6-.48,1,1,0,0,0,.06-.72L29.76-9.78a1.028,1.028,0,0,0-.96-.66H16.14a.833.833,0,0,0-.96.96,1,1,0,0,0,.96,1.02H28.08l1.5,4.5a.856.856,0,0,0,.9.66ZM37.2-.12c.6-.18.78-.6.6-1.26l-5.04-13.8a.931.931,0,0,0-.9-.54H17.82c-.66,0-1.02.3-1.02.96a1.051,1.051,0,0,0,1.02,1.02H31.14L35.94-.66a.974.974,0,0,0,.96.6ZM2.94-.06a.974.974,0,0,0,.96-.6L18.12-38.94l6.66,20.28c.24.6.66.66,1.26.66a.825.825,0,0,0,.6-.48,1.141,1.141,0,0,0,.06-.78L19.56-41.04a1.028,1.028,0,0,0-.96-.66h-.84a1.028,1.028,0,0,0-.96.66L2.04-1.38C1.86-.72,2.16-.3,2.94-.06Zm27.66-18a.825.825,0,0,0,.6-.48,1.141,1.141,0,0,0,.06-.78L25.2-37.74c-.3-.6-.66-.6-1.26-.6-.6.18-.78.6-.6,1.26l6,18.42a1.028,1.028,0,0,0,.96.66ZM75.06-3.18a.807.807,0,0,0,.54-.54,1.462,1.462,0,0,0,0-.72L69.72-18.6a.758.758,0,0,0-.84-.6c-.12,0-.3.06-.42.06a.645.645,0,0,0-.54.48.888.888,0,0,0,0,.78L73.74-3.72a.9.9,0,0,0,.9.6ZM52.56-20.16c.66-.06.9-.42.84-1.08l-2.52-19.8a1.185,1.185,0,0,0-.36-.66,1.28,1.28,0,0,0-.72-.18c-.66.06-.9.42-.84,1.08L51.42-21c.12.36.6.9,1.02.9ZM50.04.06a.9.9,0,0,0,.9-.6L67.68-35.82a1.141,1.141,0,0,0,.06-.78.852.852,0,0,0-.54-.48.7.7,0,0,0-.42-.12.931.931,0,0,0-.9.54L50.52-4.32,45.24-41.04a1.185,1.185,0,0,0-.36-.66,1.28,1.28,0,0,0-.72-.18,1.185,1.185,0,0,0-.66.36.748.748,0,0,0-.18.72L49.02-.78C49.08-.36,49.44-.06,50.04.06Zm32.1,0a.914.914,0,0,0,.9-.84l5.7-40.02a.737.737,0,0,0-.12-.72,1.369,1.369,0,0,0-.72-.36,1.28,1.28,0,0,0-.72.18,1.185,1.185,0,0,0-.36.66L81.54-4.5,70.32-30.12a.812.812,0,0,0-.9-.6.9.9,0,0,0-.9.6l-12,25.56a.765.765,0,0,0,0,.72.825.825,0,0,0,.48.6,1.526,1.526,0,0,0,.42.12.9.9,0,0,0,.9-.6l11.1-23.64L81.12-.54a.9.9,0,0,0,.9.6Zm-3.12-19.8a.983.983,0,0,0,1.02-.9L82.5-37.38a.737.737,0,0,0-.12-.72,1.817,1.817,0,0,0-.84-.42.886.886,0,0,0-.96.84l-2.52,16.8C78-20.22,78.3-19.86,79.02-19.74Zm3-19.98a.937.937,0,0,0,1.02-.72v-.06a1.025,1.025,0,0,0,0-.84c-.12-.3-.36-.48-1.02-.6a1.025,1.025,0,0,0-1.02.72v.06a1.054,1.054,0,0,0,.12.84A1.426,1.426,0,0,0,82.02-39.72ZM99.6.06a1.025,1.025,0,0,0,1.02-.72V-.72a1.35,1.35,0,0,0-.06-.84c-.12-.24-.3-.42-.96-.6a1.012,1.012,0,0,0-1.02.78,1.021,1.021,0,0,0,.12.84A1.426,1.426,0,0,0,99.6.06Zm1.08-3.3a1.028,1.028,0,0,0,.96-.66l8.4-24.6a1.194,1.194,0,0,0-.06-.78c-.12-.24-.3-.42-.9-.54a1.091,1.091,0,0,0-.96.66L99.78-4.56C99.6-3.9,99.9-3.48,100.68-3.24Zm21.12-.12a.825.825,0,0,0,.6-.48,1,1,0,0,0,.06-.72l-1.68-5.22a1.028,1.028,0,0,0-.96-.66H107.16a.833.833,0,0,0-.96.96,1,1,0,0,0,.96,1.02H119.1l1.5,4.5a.856.856,0,0,0,.9.66Zm6.42,3.24c.6-.18.78-.6.6-1.26l-5.04-13.8a.931.931,0,0,0-.9-.54H108.84c-.66,0-1.02.3-1.02.96a1.051,1.051,0,0,0,1.02,1.02h13.32l4.8,13.08a.974.974,0,0,0,.96.6ZM93.96-.06a.974.974,0,0,0,.96-.6l14.22-38.28,6.66,20.28c.24.6.66.66,1.26.66a.825.825,0,0,0,.6-.48,1.141,1.141,0,0,0,.06-.78l-7.14-21.78a1.028,1.028,0,0,0-.96-.66h-.84a1.028,1.028,0,0,0-.96.66L93.06-1.38C92.88-.72,93.18-.3,93.96-.06Zm27.66-18a.825.825,0,0,0,.6-.48,1.141,1.141,0,0,0,.06-.78l-6.06-18.42c-.3-.6-.66-.6-1.26-.6-.6.18-.78.6-.6,1.26l6,18.42a1.028,1.028,0,0,0,.96.66Zm32.88,4.98a.833.833,0,0,0-.96-.96.93.93,0,0,0-1.02.96V-.9a1,1,0,0,0,1.02.96.833.833,0,0,0,.96-.96ZM135-41.64a.852.852,0,0,0-.48.54,1.141,1.141,0,0,0,.06.78L147.36-16.8V-.9a1,1,0,0,0,1.02.96.833.833,0,0,0,.96-.96V-17.04a1.412,1.412,0,0,0-.12-.48l-12.9-23.76a.987.987,0,0,0-.9-.48A.7.7,0,0,0,135-41.64Zm6.54-.24a1.025,1.025,0,0,0-1.02.72,1.021,1.021,0,0,0,.12.84,1.425,1.425,0,0,0,.9.6,1.025,1.025,0,0,0,1.02-.72v-.06a1.35,1.35,0,0,0-.06-.84.825.825,0,0,0-.6-.48Zm1.14,3.18a.852.852,0,0,0-.48.54,1.141,1.141,0,0,0,.06.78l10.5,19.26a.958.958,0,0,0,.84.48h.06a.987.987,0,0,0,.9-.48l12.06-22.2a1.141,1.141,0,0,0,.06-.78.852.852,0,0,0-.48-.54.775.775,0,0,0-.48-.12.958.958,0,0,0-.84.48L153.66-20.64,144-38.34a.958.958,0,0,0-.84-.48A.775.775,0,0,0,142.68-38.7Zm10.26,9.96a.958.958,0,0,0,.84-.48l4.68-8.46a1.141,1.141,0,0,0,.06-.78.825.825,0,0,0-.48-.6c-.24-.06-.42-.12-.48-.12a.9.9,0,0,0-.84.54l-4.68,8.46a1,1,0,0,0-.06.72.825.825,0,0,0,.48.6A.775.775,0,0,0,152.94-28.74Z" transform="translate(258 1053)" fill="#5a584c"/>
    <path id="Path_1" data-name="Path 1" d="M.39,0A.344.344,0,0,1,0-.39V-40.442a.344.344,0,0,1,.39-.39H20.416a20.023,20.023,0,0,1,7.948,1.6A20.466,20.466,0,0,1,34.87-34.87a20.466,20.466,0,0,1,4.364,6.506,20.023,20.023,0,0,1,1.6,7.948,20.023,20.023,0,0,1-1.6,7.948A20.466,20.466,0,0,1,34.87-5.961,20.466,20.466,0,0,1,28.364-1.6,20.023,20.023,0,0,1,20.416,0ZM87.506-20.416a20.88,20.88,0,0,1-1.675,8.338,21.16,21.16,0,0,1-4.6,6.779A22.084,22.084,0,0,1,74.455-.74a20.6,20.6,0,0,1-8.3,1.675A20.88,20.88,0,0,1,57.818-.74,21.955,21.955,0,0,1,51-5.3a21.16,21.16,0,0,1-4.6-6.779,20.88,20.88,0,0,1-1.675-8.338A20.88,20.88,0,0,1,46.4-28.753,21.62,21.62,0,0,1,51-35.571a21.62,21.62,0,0,1,6.818-4.6,20.88,20.88,0,0,1,8.338-1.675,20.6,20.6,0,0,1,8.3,1.675,21.744,21.744,0,0,1,6.779,4.6,21.62,21.62,0,0,1,4.6,6.818A20.88,20.88,0,0,1,87.506-20.416Z" transform="translate(167 1053)" fill="#8dccc4"/>
  </g>
</svg>
